<?xml version="1.0" encoding="utf-8"?>
<!-- Generator: Adobe Illustrator 24.0.0, SVG Export Plug-In . SVG Version: 6.00 Build 0)  -->
<svg version="1.1" id="Layer_1" xmlns="http://www.w3.org/2000/svg" xmlns:xlink="http://www.w3.org/1999/xlink" x="0px" y="0px"
	 viewBox="0 0 400 66.2" style="enable-background:new 0 0 400 66.2;" xml:space="preserve">
<style type="text/css">
	.st0{fill:#FFFFFF;}
</style>
<g>
	<path class="st0" d="M110.8,41.5c0,1.2-0.3,2.4-0.8,3.6c-0.5,1.1-1.2,2.1-2,2.9c-0.9,0.8-1.9,1.5-3,1.9c-1.2,0.5-2.4,0.7-3.6,0.7
		H84.9v-35h16.3c1.1,0,2.3,0.3,3.3,0.8c1,0.5,1.8,1.2,2.5,2c0.7,0.9,1.2,1.8,1.6,2.9c0.4,1,0.6,2.1,0.6,3.2c0,1.7-0.4,3.4-1.3,4.9
		c-0.9,1.5-2.1,2.6-3.7,3.3c1.9,0.5,3.7,1.7,4.8,3.3C110.2,37.6,110.8,39.5,110.8,41.5z M87.5,17.8v14h12.8c0.9,0,1.8-0.2,2.6-0.6
		c0.8-0.4,1.5-0.9,2-1.6c1.2-1.3,1.8-3.1,1.8-4.9c0-0.9-0.2-1.8-0.5-2.7c-0.3-0.8-0.7-1.6-1.3-2.2c-0.5-0.6-1.2-1.2-1.9-1.6
		c-0.8-0.4-1.6-0.6-2.5-0.6L87.5,17.8z M108.3,41.2c0-0.9-0.2-1.8-0.5-2.7c-0.3-0.9-0.8-1.7-1.4-2.3c-0.6-0.7-1.3-1.2-2.1-1.6
		c-0.8-0.4-1.7-0.6-2.6-0.6H87.5v14.4h13.9c0.9,0,1.9-0.2,2.7-0.6c0.8-0.4,1.6-0.9,2.2-1.6c0.6-0.7,1.1-1.5,1.5-2.3
		C108.1,43,108.3,42.1,108.3,41.2L108.3,41.2z"/>
	<path class="st0" d="M117.6,50.6v-35h2.5v32.7h20.9v2.3H117.6z"/>
	<path class="st0" d="M157.3,15.6h2.2l14.8,35h-2.7l-4.9-11.5H150l-4.9,11.5h-2.7L157.3,15.6z M166,37l-7.6-18.3L150.5,37H166z"/>
	<path class="st0" d="M175.9,32.8c0-2.1,0.4-4.2,1.1-6.2c0.7-2,1.8-3.9,3.2-5.6c1.5-1.7,3.2-3,5.2-4c2.2-1.1,4.6-1.6,7-1.6
		c2.8-0.1,5.6,0.7,8,2.1c2.1,1.3,3.8,3.2,4.9,5.5l-2.1,1.2c-0.6-1.1-1.3-2.2-2.2-3.1c-1.6-1.6-3.6-2.7-5.8-3.1
		c-1-0.2-2.1-0.4-3.1-0.4c-2.1,0-4.1,0.4-5.9,1.4c-1.7,0.9-3.1,2.1-4.3,3.5c-1.2,1.5-2.1,3.1-2.7,4.9c-0.6,1.8-0.9,3.6-0.9,5.5
		c0,4,1.4,7.8,4,10.9c1.2,1.4,2.7,2.6,4.4,3.4c1.7,0.9,3.6,1.3,5.5,1.3c1.1,0,2.2-0.1,3.2-0.4c2.3-0.5,4.4-1.7,6.1-3.4
		c0.9-0.9,1.7-2,2.2-3.1l2.2,1c-0.6,1.3-1.4,2.5-2.4,3.5c-1,1-2.2,1.9-3.4,2.6c-1.3,0.7-2.6,1.2-4,1.6c-1.3,0.3-2.7,0.5-4.1,0.5
		c-2.3,0-4.5-0.5-6.6-1.6c-2-1-3.7-2.4-5.2-4.1c-1.5-1.7-2.6-3.7-3.4-5.8C176.3,37.3,175.9,35,175.9,32.8z"/>
	<path class="st0" d="M212.3,50.6v-35h2.5v21.3l20.4-21.3h2.9l-14.6,15.3l15.3,19.7H236L222,32.4l-7.1,7.4v10.8H212.3z"/>
	<path class="st0" d="M264,21.4c-2.3-2.5-5.5-3.8-9.6-3.8c-3.4,0-5.9,0.6-7.5,1.9c-1.6,1.3-2.4,3.2-2.3,5.2c0,1,0.2,1.9,0.6,2.8
		c0.4,0.8,1.1,1.4,1.9,1.9c1,0.6,2.1,1,3.2,1.3c1.3,0.4,2.8,0.7,4.6,1.1c1.8,0.4,3.6,0.8,5.1,1.3c1.4,0.4,2.7,1,3.9,1.8
		c1,0.7,1.9,1.6,2.5,2.7c0.6,1.2,0.9,2.6,0.9,3.9c0,1.4-0.3,2.8-0.9,4c-0.6,1.2-1.5,2.1-2.6,2.9c-1.2,0.8-2.5,1.4-3.9,1.8
		c-1.7,0.4-3.4,0.6-5.1,0.6c-5.1,0.1-10.1-1.7-13.9-5.2l1.3-2c1.5,1.6,3.4,2.8,5.4,3.7c2.3,0.9,4.7,1.4,7.2,1.3
		c3.1,0,5.4-0.6,7.2-1.7c1.7-1.1,2.7-3,2.6-5.1c0-1-0.2-2-0.7-2.9c-0.5-0.9-1.2-1.6-2-2.1c-1.1-0.7-2.2-1.2-3.4-1.6
		c-1.4-0.4-3-0.8-4.8-1.2c-1.8-0.4-3.5-0.8-5-1.3c-1.3-0.4-2.5-0.9-3.6-1.7c-0.9-0.6-1.7-1.5-2.2-2.4c-0.5-1.1-0.8-2.4-0.7-3.6
		c0-1.4,0.3-2.9,0.9-4.2c0.6-1.2,1.5-2.3,2.5-3.1c1.2-0.9,2.5-1.5,3.9-1.9c1.6-0.4,3.3-0.7,5-0.6c2.1,0,4.1,0.3,6.1,1
		c1.8,0.7,3.4,1.8,4.8,3.1L264,21.4z"/>
	<path class="st0" d="M297.7,17.8h-12.8v32.7h-2.5V17.8h-12.8v-2.3h28.1V17.8z"/>
	<path class="st0" d="M315.4,50.8c-2.3,0-4.6-0.5-6.7-1.6c-2-1-3.7-2.3-5.2-3.9c-1.5-1.7-2.6-3.6-3.4-5.7c-0.8-2.1-1.2-4.3-1.2-6.6
		c0-2.3,0.4-4.6,1.3-6.7c0.8-2.1,2-4,3.5-5.7c1.5-1.6,3.2-3,5.2-3.9c2-1,4.3-1.5,6.5-1.5c2.3,0,4.6,0.5,6.7,1.6c2,1,3.8,2.4,5.2,4
		c1.4,1.7,2.6,3.6,3.3,5.7c2.4,6.4,1,13.7-3.5,18.8c-1.5,1.6-3.2,3-5.2,3.9C319.9,50.3,317.7,50.8,315.4,50.8z M301.6,33.1
		c0,2,0.3,3.9,1,5.8c0.6,1.8,1.6,3.5,2.9,4.9c1.2,1.4,2.7,2.6,4.4,3.4c1.7,0.9,3.7,1.3,5.6,1.3c2,0,3.9-0.4,5.7-1.3
		c1.7-0.9,3.1-2.1,4.3-3.5c3.8-4.6,4.8-10.8,2.7-16.4c-0.7-1.8-1.6-3.5-2.9-4.9c-1.2-1.4-2.7-2.6-4.4-3.4c-3.6-1.7-7.7-1.7-11.2,0.1
		c-1.7,0.9-3.2,2.1-4.4,3.5c-1.2,1.5-2.2,3.1-2.8,5C301.9,29.2,301.6,31.1,301.6,33.1z"/>
	<path class="st0" d="M341.1,20.3v30.3h-2.5v-35h1.9L365,46.4V15.6h2.5v35h-2.3L341.1,20.3z"/>
	<path class="st0" d="M400,48.3v2.3h-23.3v-35h22.9v2.3h-20.4v13.8H397v2.2h-17.8v14.5H400z"/>
	<path class="st0" d="M39.2,37c-0.4-0.4-0.8-0.8-1.3-1c-0.5-0.2-1.1-0.4-1.6-0.4H25.8v9.2h10.2c0.6,0,1.2-0.1,1.8-0.3
		c0.5-0.2,1-0.6,1.4-1c0.8-0.9,1.3-2,1.3-3.2C40.4,39.1,39.9,37.9,39.2,37L39.2,37z"/>
	<path class="st0" d="M37.8,29c0.8-0.9,1.3-2.1,1.2-3.3c0.1-1.2-0.3-2.3-1.1-3.2c-0.7-0.8-1.7-1.2-2.7-1.2h-9.4v8.8h9.1
		C36,30.3,37,29.8,37.8,29z"/>
	<path class="st0" d="M0,0v66.2h66.2V0H0z M46.3,45.5c-0.6,1.1-1.4,2.1-2.4,2.8c-1.1,0.8-2.3,1.4-3.6,1.7c-1.4,0.4-2.9,0.6-4.4,0.6
		H19v-35h18.8c1.1,0,2.3,0.3,3.3,0.8c1,0.5,1.8,1.2,2.5,2c1.4,1.7,2.2,3.9,2.2,6.1c0,1.7-0.4,3.3-1.3,4.8c-0.8,1.5-2.2,2.7-3.7,3.3
		c1.9,0.5,3.6,1.6,4.8,3.2c1.2,1.7,1.8,3.7,1.8,5.7C47.2,42.9,46.9,44.3,46.3,45.5z"/>
</g>
</svg>
